<svg width="25" height="25" viewBox="0 0 25 25" fill="none" xmlns="http://www.w3.org/2000/svg">
<path fill-rule="evenodd" clip-rule="evenodd" d="M12.5 0C5.59896 0 0 5.59896 0 12.5C0 19.401 5.59896 25 12.5 25C19.3875 25 25 19.401 25 12.5C25 5.59896 19.3875 0 12.5 0ZM20.7562 5.76146C22.2953 7.63577 23.1469 9.9801 23.1698 12.4052C22.8177 12.3375 19.2927 11.6187 15.7406 12.0667C15.6583 11.8896 15.5906 11.7 15.5094 11.5104C15.2885 10.989 15.0537 10.4735 14.8052 9.96458C18.7365 8.36458 20.526 6.06042 20.7562 5.76146V5.76146ZM12.5 1.84479C15.2115 1.84479 17.6927 2.86042 19.5771 4.52812C19.3875 4.79896 17.774 6.95521 13.9781 8.37812C12.2281 5.16562 10.2906 2.53437 9.99167 2.12812C10.8139 1.93613 11.6557 1.8407 12.5 1.84375V1.84479ZM7.95833 2.84687C8.24271 3.22708 10.1406 5.87083 11.9167 9.01562C6.92708 10.3448 2.52083 10.3177 2.04687 10.3177C2.73854 7.00937 4.97604 4.25729 7.95833 2.84687ZM1.81667 12.5135V12.1885C2.27812 12.2021 7.45625 12.2698 12.7854 10.6698C13.0969 11.2667 13.3812 11.876 13.6521 12.4865C13.5167 12.5271 13.3677 12.5677 13.2323 12.6083C7.72812 14.3844 4.79896 19.2375 4.55521 19.6448C2.79209 17.688 1.81646 15.1474 1.81667 12.5135V12.5135ZM12.5 23.1833C10.0323 23.1833 7.75521 22.3427 5.95208 20.9333C6.14167 20.5396 8.31042 16.3635 14.3302 14.2625C14.3573 14.249 14.3719 14.249 14.3979 14.2354C15.9031 18.126 16.5125 21.3938 16.676 22.3292C15.3875 22.8854 13.9781 23.1833 12.5 23.1833ZM18.4521 21.3531C18.3438 20.7021 17.774 17.5844 16.3771 13.7469C19.726 13.2187 22.6542 14.0865 23.0208 14.2083C22.5594 17.1771 20.851 19.7396 18.4521 21.3531Z" fill="black"/>
</svg>
