<svg width="74" height="74" viewBox="0 0 74 74" fill="none" xmlns="http://www.w3.org/2000/svg">
<path fill-rule="evenodd" clip-rule="evenodd" d="M37 69.375C45.5864 69.375 53.8211 65.9641 59.8926 59.8926C65.9641 53.8211 69.375 45.5864 69.375 37C69.375 28.4136 65.9641 20.1789 59.8926 14.1074C53.8211 8.03593 45.5864 4.625 37 4.625C28.4136 4.625 20.1789 8.03593 14.1074 14.1074C8.03593 20.1789 4.625 28.4136 4.625 37C4.625 45.5864 8.03593 53.8211 14.1074 59.8926C20.1789 65.9641 28.4136 69.375 37 69.375ZM37 74C46.813 74 56.2241 70.1018 63.163 63.163C70.1018 56.2241 74 46.813 74 37C74 27.187 70.1018 17.7759 63.163 10.837C56.2241 3.8982 46.813 0 37 0C27.187 0 17.7759 3.8982 10.837 10.837C3.8982 17.7759 0 27.187 0 37C0 46.813 3.8982 56.2241 10.837 63.163C17.7759 70.1018 27.187 74 37 74Z" fill="black"/>
<path fill-rule="evenodd" clip-rule="evenodd" d="M21.488 35.3627C21.7028 35.1474 21.958 34.9765 22.2389 34.8599C22.5199 34.7433 22.8211 34.6833 23.1252 34.6833C23.4294 34.6833 23.7306 34.7433 24.0115 34.8599C24.2925 34.9765 24.5477 35.1474 24.7625 35.3627L37.0002 47.6051L49.238 35.3627C49.6722 34.9285 50.2611 34.6845 50.8752 34.6845C51.4893 34.6845 52.0783 34.9285 52.5125 35.3627C52.9467 35.7969 53.1906 36.3859 53.1906 37C53.1906 37.6141 52.9467 38.203 52.5125 38.6372L38.6375 52.5122C38.4227 52.7276 38.1675 52.8984 37.8865 53.015C37.6056 53.1316 37.3044 53.1916 37.0002 53.1916C36.6961 53.1916 36.3949 53.1316 36.1139 53.015C35.833 52.8984 35.5778 52.7276 35.363 52.5122L21.488 38.6372C21.2726 38.4224 21.1018 38.1672 20.9852 37.8863C20.8686 37.6053 20.8086 37.3041 20.8086 37C20.8086 36.6958 20.8686 36.3946 20.9852 36.1137C21.1018 35.8327 21.2726 35.5775 21.488 35.3627Z" fill="black"/>
<path fill-rule="evenodd" clip-rule="evenodd" d="M37 20.8125C37.6133 20.8125 38.2015 21.0561 38.6352 21.4898C39.0689 21.9235 39.3125 22.5117 39.3125 23.125V46.25C39.3125 46.8633 39.0689 47.4515 38.6352 47.8852C38.2015 48.3189 37.6133 48.5625 37 48.5625C36.3867 48.5625 35.7985 48.3189 35.3648 47.8852C34.9311 47.4515 34.6875 46.8633 34.6875 46.25V23.125C34.6875 22.5117 34.9311 21.9235 35.3648 21.4898C35.7985 21.0561 36.3867 20.8125 37 20.8125Z" fill="black"/>
</svg>
