<svg width="34" height="34" viewBox="0 0 34 34" fill="none" xmlns="http://www.w3.org/2000/svg">
<g clip-path="url(#clip0)">
<path fill-rule="evenodd" clip-rule="evenodd" d="M31.2283 16.6928C31.2283 12.843 29.699 9.15083 26.9767 6.42859C24.2545 3.70635 20.5624 2.17701 16.7125 2.17701C12.8627 2.17701 9.17055 3.70635 6.44831 6.42859C3.72607 9.15083 2.19673 12.843 2.19673 16.6928C2.19673 20.5426 3.72607 24.2348 6.44831 26.957C9.17055 29.6793 12.8627 31.2086 16.7125 31.2086C20.5624 31.2086 24.2545 29.6793 26.9767 26.957C29.699 24.2348 31.2283 20.5426 31.2283 16.6928ZM33.302 16.6928C33.302 12.293 31.5542 8.0734 28.4431 4.96227C25.3319 1.85114 21.1123 0.103329 16.7125 0.103329C12.3127 0.103329 8.09312 1.85114 4.98199 4.96227C1.87086 8.0734 0.123047 12.293 0.123047 16.6928C0.123047 21.0926 1.87086 25.3122 4.98199 28.4233C8.09312 31.5345 12.3127 33.2823 16.7125 33.2823C21.1123 33.2823 25.3319 31.5345 28.4431 28.4233C31.5542 25.3122 33.302 21.0926 33.302 16.6928Z" fill="black"/>
<path fill-rule="evenodd" clip-rule="evenodd" d="M15.9775 23.6481C15.8809 23.5518 15.8043 23.4374 15.752 23.3114C15.6998 23.1854 15.6729 23.0504 15.6729 22.914C15.6729 22.7776 15.6998 22.6426 15.752 22.5166C15.8043 22.3906 15.8809 22.2762 15.9775 22.1799L21.4665 16.6929L15.9775 11.206C15.7828 11.0113 15.6734 10.7472 15.6734 10.4719C15.6734 10.1966 15.7828 9.9325 15.9775 9.73781C16.1722 9.54311 16.4362 9.43374 16.7115 9.43374C16.9869 9.43374 17.2509 9.54311 17.4456 9.73781L23.6667 15.9589C23.7632 16.0552 23.8399 16.1696 23.8921 16.2956C23.9444 16.4215 23.9713 16.5566 23.9713 16.6929C23.9713 16.8293 23.9444 16.9644 23.8921 17.0903C23.8399 17.2163 23.7632 17.3307 23.6667 17.427L17.4456 23.6481C17.3493 23.7446 17.2349 23.8213 17.1089 23.8735C16.983 23.9258 16.8479 23.9527 16.7115 23.9527C16.5752 23.9527 16.4401 23.9258 16.3142 23.8735C16.1882 23.8213 16.0738 23.7446 15.9775 23.6481Z" fill="black"/>
<path fill-rule="evenodd" clip-rule="evenodd" d="M9.4541 16.6928C9.4541 16.4178 9.56334 16.1541 9.75779 15.9596C9.95223 15.7652 10.216 15.6559 10.4909 15.6559H20.8594C21.1344 15.6559 21.3981 15.7652 21.5925 15.9596C21.787 16.1541 21.8962 16.4178 21.8962 16.6928C21.8962 16.9678 21.787 17.2315 21.5925 17.4259C21.3981 17.6204 21.1344 17.7296 20.8594 17.7296H10.4909C10.216 17.7296 9.95223 17.6204 9.75779 17.4259C9.56334 17.2315 9.4541 16.9678 9.4541 16.6928Z" fill="black"/>
</g>
<defs>
<clipPath id="clip0">
<rect width="33.179" height="33.179" fill="white" transform="translate(0.123047 33.2823) rotate(-90)"/>
</clipPath>
</defs>
</svg>
