<svg width="33" height="33" viewBox="0 0 33 33" fill="none" xmlns="http://www.w3.org/2000/svg">
<path fill-rule="evenodd" clip-rule="evenodd" d="M30.9375 16.5C30.9375 12.6709 29.4164 8.9987 26.7089 6.29115C24.0013 3.58359 20.3291 2.0625 16.5 2.0625C12.6709 2.0625 8.9987 3.58359 6.29115 6.29115C3.58359 8.9987 2.0625 12.6709 2.0625 16.5C2.0625 20.3291 3.58359 24.0013 6.29115 26.7089C8.9987 29.4164 12.6709 30.9375 16.5 30.9375C20.3291 30.9375 24.0013 29.4164 26.7089 26.7089C29.4164 24.0013 30.9375 20.3291 30.9375 16.5ZM33 16.5C33 12.1239 31.2616 7.92709 28.1673 4.83274C25.0729 1.73839 20.8761 0 16.5 0C12.1239 0 7.92709 1.73839 4.83274 4.83274C1.73839 7.92709 0 12.1239 0 16.5C0 20.8761 1.73839 25.0729 4.83274 28.1673C7.92709 31.2616 12.1239 33 16.5 33C20.8761 33 25.0729 31.2616 28.1673 28.1673C31.2616 25.0729 33 20.8761 33 16.5Z" fill="white"/>
<path fill-rule="evenodd" clip-rule="evenodd" d="M15.7698 23.4177C15.6737 23.3219 15.5975 23.2081 15.5455 23.0829C15.4936 22.9576 15.4668 22.8233 15.4668 22.6876C15.4668 22.552 15.4936 22.4177 15.5455 22.2924C15.5975 22.1671 15.6737 22.0533 15.7698 21.9575L21.2292 16.5001L15.7698 11.0427C15.5761 10.8491 15.4673 10.5865 15.4673 10.3126C15.4673 10.0388 15.5761 9.77612 15.7698 9.58248C15.9634 9.38884 16.226 9.28006 16.4999 9.28006C16.7737 9.28006 17.0364 9.38884 17.23 9.58248L23.4175 15.77C23.5136 15.8658 23.5897 15.9796 23.6417 16.1049C23.6937 16.2302 23.7205 16.3645 23.7205 16.5001C23.7205 16.6358 23.6937 16.7701 23.6417 16.8954C23.5897 17.0206 23.5136 17.1344 23.4175 17.2302L17.23 23.4177C17.1342 23.5138 17.0204 23.59 16.8951 23.642C16.7698 23.6939 16.6355 23.7207 16.4999 23.7207C16.3642 23.7207 16.2299 23.6939 16.1046 23.642C15.9794 23.59 15.8656 23.5138 15.7698 23.4177Z" fill="white"/>
<path fill-rule="evenodd" clip-rule="evenodd" d="M9.28125 16.5C9.28125 16.2265 9.3899 15.9642 9.5833 15.7708C9.77669 15.5774 10.039 15.4688 10.3125 15.4688H20.625C20.8985 15.4688 21.1608 15.5774 21.3542 15.7708C21.5476 15.9642 21.6562 16.2265 21.6562 16.5C21.6562 16.7735 21.5476 17.0358 21.3542 17.2292C21.1608 17.4226 20.8985 17.5312 20.625 17.5312H10.3125C10.039 17.5312 9.77669 17.4226 9.5833 17.2292C9.3899 17.0358 9.28125 16.7735 9.28125 16.5Z" fill="white"/>
</svg>
