<svg width="22" height="22" viewBox="0 0 22 22" fill="none" xmlns="http://www.w3.org/2000/svg">
<path d="M4.99417 21.0735V6.88505H0.278238V21.0735H4.99417ZM2.63682 4.9467C4.28134 4.9467 5.30499 3.85719 5.30499 2.49567C5.27435 1.10345 4.28141 0.0441895 2.66802 0.0441895C1.05489 0.0441895 0 1.10347 0 2.49567C0 3.85725 1.02339 4.9467 2.60603 4.9467H2.63667H2.63682ZM7.60443 21.0735H12.3204V13.15C12.3204 12.7259 12.351 12.3023 12.4755 11.9991C12.8165 11.1519 13.5924 10.2744 14.8952 10.2744C16.6017 10.2744 17.2844 11.5755 17.2844 13.4829V21.0734H22V12.9379C22 8.57973 19.6734 6.55194 16.5706 6.55194C14.0266 6.55194 12.9095 7.97398 12.289 8.94253H12.3205V6.88475H7.60453C7.66642 8.21611 7.60453 21.0732 7.60453 21.0732L7.60443 21.0735Z" fill="black"/>
</svg>
