<svg width="28" height="28" viewBox="0 0 28 28" fill="none" xmlns="http://www.w3.org/2000/svg">
<g clip-path="url(#clip0)">
<path d="M23.625 9H0.875C0.391016 9 0 9.39102 0 9.875V27.375C0 27.859 0.391016 28.25 0.875 28.25H23.625C24.109 28.25 24.5 27.859 24.5 27.375V9.875C24.5 9.39102 24.109 9 23.625 9ZM22.5312 12.0297V26.2812H1.96875V12.0297L1.21406 11.4418L2.28867 10.0609L3.45898 10.9715H21.0437L22.2141 10.0609L23.2887 11.4418L22.5312 12.0297ZM21.0437 10.9688L12.25 17.8047L3.45625 10.9688L2.28594 10.0582L1.21133 11.4391L1.96602 12.027L11.3066 19.2895C11.5753 19.4981 11.9057 19.6114 12.2459 19.6114C12.5861 19.6114 12.9165 19.4981 13.1852 19.2895L22.5312 12.0297L23.2859 11.4418L22.2113 10.0609L21.0437 10.9688Z" fill="black"/>
</g>
<defs>
<clipPath id="clip0">
<rect width="28" height="28" fill="white"/>
</clipPath>
</defs>
</svg>
