<svg width="24" height="20" viewBox="0 0 24 20" fill="none" xmlns="http://www.w3.org/2000/svg">
<path d="M2.843 4.83512C2.85724 4.68984 2.8373 4.54325 2.78478 4.40706C2.73226 4.27086 2.64861 4.14884 2.54052 4.05073L0.302481 1.35143V0.949707H7.25875L12.6375 12.7441L17.3661 0.949707H24V1.35143L22.0851 3.18775C22.0041 3.24921 21.9414 3.33159 21.9038 3.42601C21.8662 3.52044 21.855 3.62334 21.8715 3.72364V17.2202C21.855 17.3205 21.8662 17.4234 21.9038 17.5178C21.9414 17.6122 22.0041 17.6946 22.0851 17.7561L23.9555 19.5924V19.9941H14.5429V19.5924L16.4832 17.7116C16.6722 17.5226 16.6722 17.4631 16.6722 17.1757V6.26893L11.2783 19.9592H10.5487L4.27681 6.26893V15.4434C4.22203 15.83 4.35144 16.2175 4.62455 16.4953L7.14522 19.5519V19.9536H0V19.5567L2.52068 16.4953C2.78822 16.2175 2.91287 15.8253 2.843 15.4434V4.83512Z" fill="black"/>
</svg>
